<?xml version="1.0" encoding="UTF-8"?>
<svg id="Layer_1" data-name="Layer 1" xmlns="http://www.w3.org/2000/svg" xmlns:xlink="http://www.w3.org/1999/xlink" viewBox="0 0 101.39 98.26">
  <defs>
    <style>
      .cls-1 {
        fill: url(#linear-gradient);
      }

      .cls-1, .cls-2, .cls-3, .cls-4, .cls-5 {
        stroke-width: 0px;
      }

      .cls-2 {
        fill: #231f20;
      }

      .cls-3 {
        fill: url(#linear-gradient-2);
      }

      .cls-4 {
        fill: url(#linear-gradient-3);
      }

      .cls-5 {
        fill: #fff;
      }
    </style>
    <linearGradient id="linear-gradient" x1="0" y1="49.13" x2="50.7" y2="49.13" gradientUnits="userSpaceOnUse">
      <stop offset="0" stop-color="#173050"/>
      <stop offset="1" stop-color="#0d1723"/>
    </linearGradient>
    <linearGradient id="linear-gradient-2" x1="0" y1="49.13" x2="50.7" y2="49.13" gradientUnits="userSpaceOnUse">
      <stop offset="0" stop-color="#503921"/>
      <stop offset="1" stop-color="#d8c090"/>
    </linearGradient>
    <linearGradient id="linear-gradient-3" x1="50.7" y1="49.13" x2="101.39" y2="49.13" gradientUnits="userSpaceOnUse">
      <stop offset="0" stop-color="#fff"/>
      <stop offset="1" stop-color="#fff" stop-opacity="0"/>
    </linearGradient>
  </defs>
  <g id="Layer_2" data-name="Layer 2">
    <g>
      <polygon class="cls-1" points="0 98.26 50.7 78.07 50.7 20.19 0 0 0 98.26"/>
      <path class="cls-3" d="M1,1.47l48.7,19.4v56.52L1,96.79V1.47M0,0v98.26l50.7-20.19V20.19L0,0H0Z"/>
    </g>
    <path class="cls-4" d="M100.39,1.47v95.31l-48.7-19.4V20.87L100.39,1.47M101.39,0l-50.7,20.19v57.88l50.7,20.19V0h0Z"/>
  </g>
  <g>
    <g>
      <path class="cls-5" d="M14.46,69.54v-32.11c0-1.89-.25-3.3-.75-4.17-.46-.8-1.39-1.18-2.84-1.18h-1.67v-2.17h5.77c1.54,0,2.68.2,3.48.61.84.43,1.45,1.21,1.8,2.31.33,1.04.49,2.54.49,4.6v28.77h20.78v3.34H14.46Z"/>
      <path class="cls-2" d="M14.96,30.4c1.44,0,2.53.19,3.25.56.72.37,1.24,1.04,1.55,2.02.31.98.47,2.46.47,4.45v29.27h20.78v2.34H14.96v-31.61c0-1.99-.27-3.46-.82-4.42-.55-.96-1.64-1.43-3.28-1.43h-1.17v-1.17h5.27M14.96,29.4h-6.27v3.17h2.17c1.88,0,2.28.7,2.41.93.46.8.69,2.12.69,3.92v32.61h28.05v-4.34h-20.78v-28.27c0-2.11-.17-3.67-.52-4.75-.4-1.23-1.08-2.11-2.05-2.6-.88-.45-2.09-.67-3.71-.67h0Z"/>
    </g>
    <g>
      <path class="cls-5" d="M62.66,69.54v-3.64l.15-.15c2.07-1.99,3.65-3.5,4.75-4.51,3.83-3.68,6.68-6.53,8.46-8.46,1.75-1.91,3.16-3.9,4.17-5.91.99-1.99,1.5-4.18,1.5-6.51,0-2.66-.69-4.73-2.06-6.15-1.38-1.43-3.03-2.13-5.05-2.13-2.27,0-4.17.8-5.83,2.43-1.66,1.64-2.78,4.03-3.34,7.11l-.08.41h-2.09v-.5c0-1.96.08-3.55.24-4.72.17-1.23.59-2.31,1.27-3.19,1.15-1.4,2.8-2.57,4.91-3.49,2.1-.92,4.35-1.39,6.67-1.39,3.17,0,6.01.85,8.45,2.52,2.5,1.71,3.76,4.78,3.76,9.11,0,2.53-.6,4.93-1.79,7.14-1.17,2.18-2.7,4.24-4.53,6.11-1.8,1.84-4.4,4.26-7.72,7.2-2.64,2.37-4.64,4.18-5.96,5.39h11.89c2.25,0,3.98-.47,5.13-1.41,1.14-.92,1.69-2.31,1.69-4.24v-.5h2.17v4.3c0,3.39-1.89,5.18-5.48,5.18h-21.28Z"/>
      <path class="cls-2" d="M76.34,29.23c3.08,0,5.8.81,8.17,2.43,2.36,1.62,3.54,4.52,3.54,8.69,0,2.46-.58,4.76-1.73,6.91-1.15,2.15-2.63,4.15-4.45,6-1.81,1.85-4.38,4.24-7.7,7.17-3.44,3.08-5.74,5.17-6.91,6.26h13.17c2.38,0,4.2-.51,5.44-1.52,1.25-1.01,1.87-2.56,1.87-4.62h1.17v3.81c0,3.12-1.66,4.68-4.98,4.68h-20.78v-2.93c2.07-1.99,3.65-3.49,4.74-4.51,3.86-3.71,6.69-6.54,8.49-8.49,1.79-1.95,3.21-3.96,4.24-6.03,1.03-2.07,1.55-4.31,1.55-6.73,0-2.81-.73-4.98-2.2-6.5-1.46-1.52-3.27-2.28-5.42-2.28-2.38,0-4.44.86-6.18,2.58-1.74,1.72-2.9,4.18-3.48,7.38h-1.17c0-1.95.08-3.5.23-4.65.16-1.15.55-2.14,1.17-2.96,1.09-1.33,2.66-2.44,4.71-3.34,2.05-.9,4.21-1.35,6.47-1.35M76.34,28.23c-2.39,0-4.7.48-6.87,1.43-2.19.96-3.9,2.18-5.08,3.62-.75.99-1.21,2.14-1.39,3.46-.16,1.19-.24,2.8-.24,4.79v1h3l.15-.82c.54-2.98,1.62-5.28,3.2-6.85,1.56-1.54,3.35-2.29,5.47-2.29,1.88,0,3.42.65,4.69,1.98,1.27,1.32,1.92,3.28,1.92,5.81,0,2.25-.49,4.37-1.45,6.29-.99,1.97-2.36,3.93-4.09,5.8-1.77,1.93-4.62,4.77-8.45,8.44-1.1,1.02-2.7,2.54-4.74,4.51l-.31.3v4.35h21.78c3.85,0,5.98-2.02,5.98-5.68v-4.81h-3.17v1c0,1.77-.49,3.03-1.5,3.85-1.06.86-2.68,1.3-4.81,1.3h-10.61c1.26-1.15,2.93-2.66,5.01-4.52,3.32-2.93,5.93-5.36,7.75-7.22,1.87-1.91,3.42-4,4.62-6.23,1.22-2.28,1.85-4.77,1.85-7.38,0-4.51-1.34-7.71-3.98-9.52-2.52-1.73-5.46-2.6-8.73-2.6h0Z"/>
    </g>
  </g>
</svg>